<svg width="20" height="20" viewBox="0 0 20 20" fill="none" xmlns="http://www.w3.org/2000/svg">
<path fill-rule="evenodd" style="fill: #ed1c24;" clip-rule="evenodd" d="M8.37838 14.2568C5.13184 14.2568 2.5 11.6249 2.5 8.37838C2.5 5.13184 5.13184 2.5 8.37838 2.5C11.6249 2.5 14.2568 5.13184 14.2568 8.37838C14.2568 9.78262 13.7644 11.0719 12.9429 12.0829L17.3219 16.4619C17.5594 16.6994 17.5594 17.0844 17.3219 17.3219C17.0844 17.5594 16.6994 17.5594 16.4619 17.3219L12.0829 12.9429C11.0719 13.7644 9.78262 14.2568 8.37838 14.2568ZM8.37838 13.0405C10.9532 13.0405 13.0405 10.9532 13.0405 8.37838C13.0405 5.80353 10.9532 3.71621 8.37838 3.71621C5.80354 3.71621 3.71622 5.80353 3.71622 8.37838C3.71622 10.9532 5.80354 13.0405 8.37838 13.0405Z" fill="#E9E9E9"/>
</svg>
